<svg width="195" height="651" viewBox="0 0 195 651" fill="none" xmlns="http://www.w3.org/2000/svg">
<g id="Group 18">
<path id="Path 3" fill-rule="evenodd" clip-rule="evenodd" d="M-162.361 33.3254C-238.064 9.63167 -315.904 -29.8875 -395.596 42.2949C-475.289 114.477 -525.39 177.709 -493.036 259.522C-460.682 341.336 -328.614 290.377 -290.242 363.499C-251.869 436.621 -336.183 502.984 -299.833 568.062C-263.484 633.14 -235.534 674.849 -118.718 633.471C-1.90224 592.092 -12.6727 486.807 76.1601 425.153C164.993 363.499 261.104 271.2 129.206 106.506C-2.6915 -58.1879 -86.6586 57.0191 -162.361 33.3254Z" stroke="#9E96C6"/>
<path id="Path 3 Copy" fill-rule="evenodd" clip-rule="evenodd" d="M-152.895 71.2488C-214.478 52.0091 -277.8 19.9188 -342.629 78.5323C-407.457 137.146 -448.214 188.491 -421.895 254.925C-395.575 321.359 -288.14 279.98 -256.924 339.356C-225.708 398.732 -294.296 452.621 -264.726 505.465C-235.157 558.31 -212.42 592.178 -117.392 558.578C-22.3638 524.978 -31.1254 439.484 41.1389 389.42C113.403 339.356 191.588 264.408 84.2912 130.673C-23.0059 -3.06168 -91.312 90.4885 -152.895 71.2488Z" stroke="#9E96C6"/>
<path id="Path 3 Copy 2" fill-rule="evenodd" clip-rule="evenodd" d="M-135.188 96.4174C-185.15 80.719 -236.522 54.5353 -289.117 102.36C-341.711 150.185 -374.777 192.08 -353.424 246.286C-332.071 300.492 -244.91 266.729 -219.586 315.176C-194.261 363.624 -249.905 407.594 -225.916 450.712C-201.926 493.829 -183.48 521.464 -106.385 494.048C-29.2899 466.633 -36.398 396.875 22.229 356.026C80.8561 315.176 144.287 254.023 57.238 144.904C-29.8108 35.7846 -85.2266 112.116 -135.188 96.4174Z" stroke="#9E96C6"/>
<path id="Path 3 Copy 5" fill-rule="evenodd" clip-rule="evenodd" d="M-116.684 127.184C-156.979 114.588 -198.412 93.5806 -240.831 131.952C-283.25 170.323 -309.918 203.936 -292.696 247.427C-275.475 290.918 -205.178 263.829 -184.753 302.7C-164.328 341.57 -209.206 376.848 -189.858 411.443C-170.51 446.038 -155.633 468.21 -93.4539 446.213C-31.2751 424.217 -37.008 368.248 10.276 335.474C57.56 302.7 108.718 253.635 38.5115 166.086C-31.6952 78.5365 -76.3893 139.779 -116.684 127.184Z" stroke="#9E96C6"/>
<path id="Path 3 Copy 4" fill-rule="evenodd" clip-rule="evenodd" d="M-111.917 147.046C-144.827 136.751 -178.666 119.579 -213.31 150.943C-247.953 182.308 -269.734 209.783 -255.668 245.332C-241.603 280.881 -184.191 258.739 -167.51 290.511C-150.828 322.283 -187.481 351.12 -171.679 379.397C-155.877 407.674 -143.727 425.797 -92.9448 407.818C-42.1627 389.838 -46.8448 344.09 -8.22739 317.301C30.39 290.511 72.1715 250.406 14.8329 178.844C-42.5058 107.282 -79.008 157.341 -111.917 147.046Z" stroke="#9E96C6"/>
<path id="Path 3 Copy 3" fill-rule="evenodd" clip-rule="evenodd" d="M-102.775 161.406C-129.493 153.046 -156.966 139.101 -185.093 164.571C-213.22 190.041 -230.903 212.352 -219.483 241.22C-208.064 270.088 -161.452 252.107 -147.909 277.908C-134.365 303.709 -164.123 327.125 -151.294 350.088C-138.465 373.051 -128.6 387.768 -87.371 373.168C-46.142 358.567 -49.9433 321.417 -18.5906 299.663C12.7622 277.908 46.6838 245.34 0.131622 187.228C-46.4205 129.116 -76.056 169.766 -102.775 161.406Z" stroke="#9E96C6"/>
</g>
</svg>
